<svg width="511" height="103" viewBox="0 0 511 103" fill="none" xmlns="http://www.w3.org/2000/svg">
<rect width="511" height="103" fill="white"/>
<path d="M29 48.312C30.696 48.312 32.648 48.552 34.856 49.032C37.096 49.512 38.728 50.024 39.752 50.568V59.88H37.928C34.984 54.856 31.08 52.344 26.216 52.344C24.104 52.344 22.168 52.968 20.408 54.216C18.68 55.432 17.32 57.144 16.328 59.352C15.336 61.528 14.84 63.976 14.84 66.696C14.84 69.832 15.32 72.696 16.28 75.288C17.272 77.88 18.76 79.96 20.744 81.528C22.76 83.096 25.24 83.88 28.184 83.88C30.904 83.88 34.808 81.832 39.896 77.736L41.336 80.04L32.504 86.904C31.32 87.32 30.168 87.592 29.048 87.72C27.96 87.88 26.776 87.96 25.496 87.96C22.136 87.96 19.16 87.144 16.568 85.512C13.976 83.88 11.96 81.64 10.52 78.792C9.08 75.912 8.36 72.648 8.36 69C8.36 65.256 9.448 61.8 11.624 58.632C13.8 55.432 16.504 52.92 19.736 51.096C22.968 49.24 26.056 48.312 29 48.312ZM72.023 87H62.903V82.824L57.479 87.096C56.839 87.352 56.039 87.48 55.079 87.48C52.327 87.48 50.327 86.792 49.079 85.416C47.863 84.04 47.255 82.392 47.255 80.472C47.255 79.32 47.671 78.184 48.503 77.064C49.335 75.944 50.519 74.888 52.055 73.896H62.903V70.824C62.903 68.744 62.343 67.272 61.223 66.408C60.135 65.544 58.631 65.112 56.711 65.112C54.727 65.112 52.295 66.312 49.415 68.712L47.975 66.888L54.887 61.416C56.167 61.16 57.703 61.032 59.495 61.032C62.407 61.032 64.663 61.752 66.263 63.192C67.863 64.6 68.663 66.664 68.663 69.384V83.4L72.983 85.08L72.023 87ZM56.615 83.4C58.567 83.4 60.663 82.504 62.903 80.712V75.864H54.407C53.991 76.376 53.687 76.888 53.495 77.4C53.335 77.912 53.255 78.472 53.255 79.08C53.255 80.264 53.559 81.288 54.167 82.152C54.775 82.984 55.591 83.4 56.615 83.4ZM121.948 87H112.828V70.824C112.828 69.064 112.556 67.832 112.012 67.128C111.468 66.424 110.492 66.072 109.084 66.072C108.092 66.072 107.116 66.264 106.156 66.648C105.196 67 104.06 67.72 102.748 68.808V83.4L107.068 85.08L106.108 87H96.9875V70.824C96.9875 69.064 96.7155 67.832 96.1715 67.128C95.6275 66.424 94.6515 66.072 93.2435 66.072C92.2515 66.072 91.2755 66.264 90.3155 66.648C89.3555 67 88.2195 67.72 86.9075 68.808V83.4L91.2275 85.08L90.2675 87H76.8755V85.512L81.1475 82.152V68.568L76.8755 66.072V64.584L85.0835 60.552L86.6195 66.696L93.0035 61.368C93.6755 61.112 94.5555 60.984 95.6435 60.984C97.4995 60.984 99.0355 61.496 100.252 62.52C101.468 63.512 102.236 64.888 102.556 66.648L108.796 61.416C109.468 61.16 110.348 61.032 111.436 61.032C113.612 61.032 115.34 61.704 116.62 63.048C117.9 64.36 118.54 66.152 118.54 68.424V83.4L122.908 85.08L121.948 87ZM141.535 87.528C139.807 87.528 138.207 87 136.734 85.944V95.256L143.455 97.32L142.495 99.24H126.703V97.752L130.975 94.392V68.616L126.703 66.12V64.632L134.911 60.6L136.495 66.84L143.359 61.416C144.383 61.16 145.551 61.032 146.863 61.032C148.591 61.032 150.143 61.592 151.519 62.712C152.927 63.8 154.015 65.288 154.783 67.176C155.583 69.064 155.983 71.144 155.983 73.416C155.983 75.88 155.231 78.2 153.727 80.376C152.223 82.52 150.335 84.248 148.062 85.56C145.823 86.84 143.647 87.48 141.535 87.48V87.528ZM144.415 65.64C143.199 65.64 142.015 65.88 140.863 66.36C139.711 66.84 138.335 67.784 136.734 69.192V77.304C136.734 79.064 137.391 80.536 138.703 81.72C140.015 82.904 141.887 83.496 144.319 83.496C147.935 83.496 149.743 80.92 149.743 75.768C149.743 72.92 149.279 70.52 148.351 68.568C147.423 66.616 146.111 65.64 144.415 65.64ZM189.334 87H180.214V82.008L174.118 87.096C173.446 87.352 172.566 87.48 171.478 87.48C169.302 87.48 167.574 86.824 166.294 85.512C165.014 84.168 164.374 82.36 164.374 80.088V68.616L160.102 66.12V64.632L168.31 60.6H170.134V77.688C170.134 79.448 170.406 80.68 170.95 81.384C171.494 82.088 172.47 82.44 173.878 82.44C174.87 82.44 175.846 82.264 176.806 81.912C177.766 81.528 178.902 80.792 180.214 79.704V68.616L175.942 66.12V64.632L184.15 60.6H185.974V83.4L190.294 85.08L189.334 87ZM210.08 81.816C210.08 80.92 209.584 80.104 208.592 79.368C207.6 78.6 206.08 77.688 204.032 76.632C202.368 75.768 201.024 75.016 200 74.376C198.976 73.736 198.096 73 197.36 72.168C196.656 71.304 196.304 70.376 196.304 69.384C196.304 68.232 196.784 67 197.744 65.688C198.704 64.376 199.888 63.272 201.296 62.376C202.704 61.48 204.016 61.032 205.232 61.032C206.704 61.032 208.4 61.224 210.32 61.608C212.272 61.96 213.68 62.36 214.544 62.808V70.2H212.72C211.696 68.216 210.512 66.68 209.168 65.592C207.824 64.472 206.448 63.912 205.04 63.912C204.048 63.912 203.248 64.184 202.64 64.728C202.032 65.24 201.728 65.896 201.728 66.696C201.728 67.688 202.24 68.584 203.264 69.384C204.32 70.152 205.904 71.064 208.016 72.12C209.648 72.952 210.96 73.672 211.952 74.28C212.944 74.888 213.776 75.608 214.448 76.44C215.152 77.24 215.504 78.136 215.504 79.128C215.504 80.312 214.992 81.56 213.968 82.872C212.976 84.152 211.744 85.24 210.272 86.136C208.832 87.032 207.504 87.48 206.288 87.48C204.72 87.48 202.848 87.304 200.672 86.952C198.528 86.568 196.992 86.152 196.064 85.704V78.312H197.888C199.008 80.296 200.336 81.848 201.872 82.968C203.408 84.056 204.96 84.6 206.528 84.6C207.584 84.6 208.432 84.328 209.072 83.784C209.744 83.24 210.08 82.584 210.08 81.816Z" fill="#0B397C"/>
<path d="M350.561 87.096H341.633L331.073 70.056L328.817 68.424L329.537 66.984H332.225C334.401 66.984 336.113 66.44 337.361 65.352C338.641 64.232 339.281 62.712 339.281 60.792C339.281 58.264 338.577 56.168 337.169 54.504C335.761 52.808 333.713 51.96 331.025 51.96C329.233 51.96 327.585 52.488 326.081 53.544V83.448L331.121 85.176L330.161 87.096H315.569V85.608L320.081 82.056V52.872L315.089 51.24L316.049 49.32H321.617C324.529 49.32 327.393 49.224 330.209 49.032C332.257 48.904 333.777 48.84 334.769 48.84C336.913 48.84 338.817 49.272 340.481 50.136C342.177 51 343.473 52.168 344.369 53.64C345.297 55.112 345.761 56.728 345.761 58.488C345.761 60.088 345.265 61.624 344.273 63.096C343.281 64.536 341.969 65.8 340.337 66.888C338.737 67.944 337.041 68.744 335.249 69.288L338.369 70.344L345.809 82.344L351.521 85.176L350.561 87.096ZM367.485 87H354.093V85.512L358.365 82.152V68.136L354.093 65.16V63.672L362.301 60.6H364.125V83.4L368.445 85.08L367.485 87ZM361.053 46.2C362.013 46.2 362.797 46.552 363.405 47.256C364.045 47.96 364.365 48.84 364.365 49.896C364.365 50.632 364.141 51.336 363.693 52.008C363.245 52.648 362.685 53.16 362.013 53.544C361.341 53.928 360.685 54.12 360.045 54.12C359.085 54.12 358.285 53.768 357.645 53.064C357.037 52.36 356.733 51.48 356.733 50.424C356.733 49.688 356.957 49 357.405 48.36C357.853 47.688 358.413 47.16 359.085 46.776C359.757 46.392 360.413 46.2 361.053 46.2ZM401.741 87H392.621V83.544L388.157 87.096C387.133 87.352 385.901 87.48 384.461 87.48C382.349 87.48 380.445 86.936 378.749 85.848C377.085 84.728 375.773 83.224 374.813 81.336C373.885 79.448 373.421 77.368 373.421 75.096C373.421 72.632 374.173 70.328 375.677 68.184C377.181 66.008 379.053 64.28 381.293 63C383.565 61.688 385.757 61.032 387.869 61.032C389.629 61.032 391.229 61.528 392.669 62.52V52.632L388.397 49.656V48.168L396.605 45.096H398.429V83.4L402.701 85.08L401.741 87ZM386.909 83.4C387.869 83.4 388.781 83.272 389.645 83.016C390.541 82.728 391.533 82.2 392.621 81.432V70.488C392.429 68.888 391.677 67.592 390.365 66.6C389.085 65.576 387.325 65.064 385.085 65.064C381.469 65.064 379.661 67.64 379.661 72.792C379.661 75.8 380.285 78.328 381.533 80.376C382.781 82.392 384.573 83.4 386.909 83.4ZM422.961 87.096C421.681 87.352 420.145 87.48 418.353 87.48C416.241 87.48 414.337 86.936 412.641 85.848C410.977 84.728 409.665 83.224 408.705 81.336C407.777 79.448 407.313 77.368 407.313 75.096C407.313 72.632 408.065 70.328 409.569 68.184C411.073 66.008 412.945 64.28 415.185 63C417.457 61.688 419.649 61.032 421.761 61.032C424.801 61.032 427.153 62.232 428.817 64.632C430.513 67.032 431.361 70.2 431.361 74.136H413.601C413.793 76.856 414.529 79.08 415.809 80.808C417.121 82.536 418.897 83.4 421.137 83.4C423.217 83.4 426.177 81.784 430.017 78.552L431.457 80.376L422.961 87.096ZM418.977 65.064C415.521 65.064 413.713 67.432 413.553 72.168H424.785C424.497 70.44 424.193 69.128 423.873 68.232C423.585 67.304 423.057 66.552 422.289 65.976C421.553 65.368 420.449 65.064 418.977 65.064Z" fill="#297080"/>
<rect x="227" y="27.5" width="75" height="59" fill="#0B397C"/>
<path d="M302.377 26.5H226.7L264.994 4.16113L302.377 26.5Z" fill="#0B397C" stroke="#C9DEFF" stroke-width="2"/>
<rect x="241" y="27.5" width="7" height="59" fill="#C9DEFF"/>
<rect x="281" y="27.5" width="7" height="59" fill="#C9DEFF"/>
<mask id="path-7-inside-1_4_22" fill="white">
<path d="M264.5 56.5C268.412 56.5 271.623 58.6968 271.968 61.5H272V86.5H257V61.5H257.032C257.377 58.6968 260.588 56.5 264.5 56.5Z"/>
</mask>
<path d="M264.5 56.5C268.412 56.5 271.623 58.6968 271.968 61.5H272V86.5H257V61.5H257.032C257.377 58.6968 260.588 56.5 264.5 56.5Z" fill="#295AA1"/>
<path d="M271.968 61.5L270.975 61.622L271.083 62.5H271.968V61.5ZM272 61.5H273V60.5H272V61.5ZM272 86.5V87.5H273V86.5H272ZM257 86.5H256V87.5H257V86.5ZM257 61.5V60.5H256V61.5H257ZM257.032 61.5V62.5H257.917L258.025 61.622L257.032 61.5ZM264.5 56.5V57.5C266.275 57.5 267.858 57.9995 269.013 58.7781C270.172 59.559 270.847 60.5765 270.975 61.622L271.968 61.5L272.96 61.378C272.744 59.6203 271.642 58.1378 270.131 57.1196C268.616 56.0989 266.637 55.5 264.5 55.5V56.5ZM271.968 61.5V62.5H272V61.5V60.5H271.968V61.5ZM272 61.5H271V86.5H272H273V61.5H272ZM272 86.5V85.5H257V86.5V87.5H272V86.5ZM257 86.5H258V61.5H257H256V86.5H257ZM257 61.5V62.5H257.032V61.5V60.5H257V61.5ZM257.032 61.5L258.025 61.622C258.153 60.5765 258.828 59.559 259.987 58.7781C261.142 57.9995 262.725 57.5 264.5 57.5V56.5V55.5C262.363 55.5 260.384 56.0989 258.869 57.1196C257.358 58.1378 256.256 59.6203 256.04 61.378L257.032 61.5Z" fill="white" mask="url(#path-7-inside-1_4_22)"/>
<line x1="258" y1="86" x2="271" y2="86" stroke="#295AA1"/>
<rect x="293.25" y="37.75" width="3.5" height="11.5" fill="#49798F" stroke="white" stroke-width="0.5"/>
<rect x="293.25" y="65.75" width="3.5" height="11.5" fill="#49798F" stroke="white" stroke-width="0.5"/>
<rect x="232.25" y="37.75" width="3.5" height="11.5" fill="#49798F" stroke="white" stroke-width="0.5"/>
<rect x="232.25" y="65.75" width="3.5" height="11.5" fill="#49798F" stroke="white" stroke-width="0.5"/>
<rect x="255.25" y="37.75" width="3.5" height="11.5" fill="#49798F" stroke="white" stroke-width="0.5"/>
<rect x="270.25" y="37.75" width="3.5" height="11.5" fill="#49798F" stroke="white" stroke-width="0.5"/>
<rect x="266.188" y="66.6875" width="2.625" height="13.625" fill="#49798F" stroke="white" stroke-width="0.375"/>
<rect x="260.188" y="66.6875" width="2.625" height="13.625" fill="#49798F" stroke="white" stroke-width="0.375"/>
<path d="M441.6 68.9189L442.399 66.9502L444.307 65.5352L446.645 63.3203L448.183 58.583L449.598 55.999L452.305 53.5996L456.058 52H467.932H476.237L479.19 52.7998L482.451 54.8301L484.912 57.7217L487.435 64.5508L499.616 65.6582L501.646 67.3193L502.508 70.1494L501.154 77.9014L497.463 77.7168L496.232 75.8096L494.141 74.1484L490.818 73.1025L487.435 73.5947L484.604 75.3789L483.005 77.9014H459.503L456.919 74.6406L453.904 73.2871L449.598 73.5947L447.383 74.6406L444.983 77.9014H441.6V68.9189Z" fill="#297080"/>
<circle cx="490.449" cy="81.0391" r="4.55273" fill="#E6E6E6" stroke="#666666" stroke-width="3.44531"/>
<circle cx="452.182" cy="81.0391" r="4.55273" fill="#E6E6E6" stroke="#666666" stroke-width="3.44531"/>
<path d="M441.354 77.9629H445.045L444.553 79.501L444.43 81.4697H441.23L440.369 80.793L440 79.624L440.369 78.5781L441.354 77.9629Z" fill="#D9D9D9"/>
<path d="M459.441 77.9629H483.128L482.697 79.2549L482.574 80.4854V81.4697H460.057V80.5469L459.934 79.6855L459.811 78.8242L459.441 77.9629Z" fill="#D9D9D9"/>
<path d="M497.524 78.0244L501.708 77.9629L502.569 78.5781L503 79.3779V80.1777L502.631 80.8545L502.262 81.2236L501.708 81.4697L498.078 81.5312V80.4854L498.017 79.501L497.832 78.8242L497.524 78.0244Z" fill="#D9D9D9"/>
<path d="M499.924 69.7188C499.271 69.7187 498.645 69.9845 498.184 70.4576C497.722 70.9306 497.463 71.5722 497.463 72.2412C497.463 72.9102 497.722 73.5518 498.184 74.0249C498.645 74.4979 499.271 74.7637 499.924 74.7637L499.924 72.2412V69.7188Z" fill="#D9D9D9"/>
<path d="M452.243 56.6758L453.228 55.6914L454.396 54.9531V63.3203H449.967L450.89 59.875L451.382 58.2139L452.243 56.6758Z" fill="url(#paint0_linear_4_22)"/>
<rect x="456.611" y="54.9531" width="13.7812" height="8.36719" fill="url(#paint1_linear_4_22)"/>
<path d="M472.65 54.8953L477.102 54.9382L478.952 55.4802L480.613 56.3698L482.329 58.0172L483.24 59.715L484.624 63.7473L472.689 63.6324L472.65 54.8953Z" fill="url(#paint2_linear_4_22)"/>
<rect x="461.902" y="67.9961" width="2.70703" height="2.70703" fill="#4F4F4F"/>
<rect x="464.609" y="70.7031" width="2.70703" height="2.70703" fill="#4F4F4F"/>
<rect x="467.316" y="67.9961" width="2.70703" height="2.70703" fill="#4F4F4F"/>
<rect x="470.023" y="70.7031" width="2.70703" height="2.70703" fill="#4F4F4F"/>
<rect x="472.73" y="67.9961" width="2.70703" height="2.70703" fill="#4F4F4F"/>
<defs>
<linearGradient id="paint0_linear_4_22" x1="454.396" y1="55.7529" x2="450.767" y2="62.7666" gradientUnits="userSpaceOnUse">
<stop stop-color="#96E0DE"/>
<stop offset="1" stop-color="#76CDCE"/>
</linearGradient>
<linearGradient id="paint1_linear_4_22" x1="470.393" y1="54.9531" x2="456.611" y2="64.2432" gradientUnits="userSpaceOnUse">
<stop stop-color="#96E0DE"/>
<stop offset="1" stop-color="#76CDCE"/>
</linearGradient>
<linearGradient id="paint2_linear_4_22" x1="481.548" y1="55.6216" x2="473.076" y2="64.1389" gradientUnits="userSpaceOnUse">
<stop stop-color="#96E0DE"/>
<stop offset="1" stop-color="#76CDCE"/>
</linearGradient>
</defs>
</svg>
